<svg width="30" height="30" viewBox="0 0 30 30" fill="none" xmlns="http://www.w3.org/2000/svg">
<rect width="30" height="30" rx="15" fill="#37437D"/>
<path fill-rule="evenodd" clip-rule="evenodd" d="M14.25 9.5C11.6266 9.5 9.5 11.6266 9.5 14.25C9.5 16.8734 11.6266 19 14.25 19C16.8734 19 19 16.8734 19 14.25C19 11.6266 16.8734 9.5 14.25 9.5ZM8.5 14.25C8.5 11.0744 11.0744 8.5 14.25 8.5C17.4256 8.5 20 11.0744 20 14.25C20 17.4256 17.4256 20 14.25 20C11.0744 20 8.5 17.4256 8.5 14.25Z" fill="white"/>
<path fill-rule="evenodd" clip-rule="evenodd" d="M17.6089 17.6089C17.8042 17.4137 18.1208 17.4137 18.3161 17.6089L21.3536 20.6464C21.5488 20.8417 21.5488 21.1583 21.3536 21.3536C21.1583 21.5488 20.8417 21.5488 20.6464 21.3536L17.6089 18.3161C17.4137 18.1208 17.4137 17.8042 17.6089 17.6089Z" fill="white"/>
</svg>
