<svg width="12" height="13" viewBox="0 0 12 13" fill="none" xmlns="http://www.w3.org/2000/svg">
<path d="M10.375 1.75H9.0625V1.3125C9.0625 1.19647 9.01641 1.08519 8.93436 1.00314C8.85231 0.921094 8.74103 0.875 8.625 0.875C8.50897 0.875 8.39769 0.921094 8.31564 1.00314C8.23359 1.08519 8.1875 1.19647 8.1875 1.3125V1.75H3.8125V1.3125C3.8125 1.19647 3.76641 1.08519 3.68436 1.00314C3.60231 0.921094 3.49103 0.875 3.375 0.875C3.25897 0.875 3.14769 0.921094 3.06564 1.00314C2.98359 1.08519 2.9375 1.19647 2.9375 1.3125V1.75H1.625C1.39294 1.75 1.17038 1.84219 1.00628 2.00628C0.842187 2.17038 0.75 2.39294 0.75 2.625V11.375C0.75 11.6071 0.842187 11.8296 1.00628 11.9937C1.17038 12.1578 1.39294 12.25 1.625 12.25H10.375C10.6071 12.25 10.8296 12.1578 10.9937 11.9937C11.1578 11.8296 11.25 11.6071 11.25 11.375V2.625C11.25 2.39294 11.1578 2.17038 10.9937 2.00628C10.8296 1.84219 10.6071 1.75 10.375 1.75ZM2.9375 2.625V3.0625C2.9375 3.17853 2.98359 3.28981 3.06564 3.37186C3.14769 3.45391 3.25897 3.5 3.375 3.5C3.49103 3.5 3.60231 3.45391 3.68436 3.37186C3.76641 3.28981 3.8125 3.17853 3.8125 3.0625V2.625H8.1875V3.0625C8.1875 3.17853 8.23359 3.28981 8.31564 3.37186C8.39769 3.45391 8.50897 3.5 8.625 3.5C8.74103 3.5 8.85231 3.45391 8.93436 3.37186C9.01641 3.28981 9.0625 3.17853 9.0625 3.0625V2.625H10.375V4.375H1.625V2.625H2.9375ZM10.375 11.375H1.625V5.25H10.375V11.375ZM6.65625 7.21875C6.65625 7.34854 6.61776 7.47542 6.54565 7.58334C6.47354 7.69126 6.37105 7.77538 6.25114 7.82505C6.13122 7.87472 5.99927 7.88771 5.87197 7.86239C5.74467 7.83707 5.62774 7.77457 5.53596 7.68279C5.44418 7.59101 5.38168 7.47408 5.35636 7.34678C5.33104 7.21948 5.34403 7.08753 5.3937 6.96761C5.44337 6.8477 5.52749 6.74521 5.63541 6.6731C5.74333 6.60099 5.87021 6.5625 6 6.5625C6.17405 6.5625 6.34097 6.63164 6.46404 6.75471C6.58711 6.87778 6.65625 7.0447 6.65625 7.21875ZM9.0625 7.21875C9.0625 7.34854 9.02401 7.47542 8.9519 7.58334C8.87979 7.69126 8.7773 7.77538 8.65739 7.82505C8.53747 7.87472 8.40552 7.88771 8.27822 7.86239C8.15092 7.83707 8.03399 7.77457 7.94221 7.68279C7.85043 7.59101 7.78793 7.47408 7.76261 7.34678C7.73729 7.21948 7.75028 7.08753 7.79995 6.96761C7.84962 6.8477 7.93374 6.74521 8.04166 6.6731C8.14958 6.60099 8.27646 6.5625 8.40625 6.5625C8.5803 6.5625 8.74722 6.63164 8.87029 6.75471C8.99336 6.87778 9.0625 7.0447 9.0625 7.21875ZM4.25 9.40625C4.25 9.53604 4.21151 9.66292 4.1394 9.77084C4.06729 9.87876 3.9648 9.96288 3.84489 10.0125C3.72497 10.0622 3.59302 10.0752 3.46572 10.0499C3.33842 10.0246 3.22149 9.96207 3.12971 9.87029C3.03793 9.77851 2.97543 9.66158 2.95011 9.53428C2.92479 9.40698 2.93778 9.27503 2.98745 9.15511C3.03712 9.0352 3.12124 8.93271 3.22916 8.8606C3.33708 8.78849 3.46396 8.75 3.59375 8.75C3.7678 8.75 3.93472 8.81914 4.05779 8.94221C4.18086 9.06528 4.25 9.2322 4.25 9.40625ZM6.65625 9.40625C6.65625 9.53604 6.61776 9.66292 6.54565 9.77084C6.47354 9.87876 6.37105 9.96288 6.25114 10.0125C6.13122 10.0622 5.99927 10.0752 5.87197 10.0499C5.74467 10.0246 5.62774 9.96207 5.53596 9.87029C5.44418 9.77851 5.38168 9.66158 5.35636 9.53428C5.33104 9.40698 5.34403 9.27503 5.3937 9.15511C5.44337 9.0352 5.52749 8.93271 5.63541 8.8606C5.74333 8.78849 5.87021 8.75 6 8.75C6.17405 8.75 6.34097 8.81914 6.46404 8.94221C6.58711 9.06528 6.65625 9.2322 6.65625 9.40625ZM9.0625 9.40625C9.0625 9.53604 9.02401 9.66292 8.9519 9.77084C8.87979 9.87876 8.7773 9.96288 8.65739 10.0125C8.53747 10.0622 8.40552 10.0752 8.27822 10.0499C8.15092 10.0246 8.03399 9.96207 7.94221 9.87029C7.85043 9.77851 7.78793 9.66158 7.76261 9.53428C7.73729 9.40698 7.75028 9.27503 7.79995 9.15511C7.84962 9.0352 7.93374 8.93271 8.04166 8.8606C8.14958 8.78849 8.27646 8.75 8.40625 8.75C8.5803 8.75 8.74722 8.81914 8.87029 8.94221C8.99336 9.06528 9.0625 9.2322 9.0625 9.40625Z" fill="#9F9FA1"/>
</svg>
